<svg width="2156" height="1032" version="1.1"
	xmlns="http://www.w3.org/2000/svg">
	<path fill="rgb(0,0,0)" stroke="rgb(0,0,0)" stroke-width="4" opacity="0" d="M 0 0 L 2156 0 L 2156 1032 L 0 1032 L 0 0 Z M 513 105 L 488 110 L 470 116 L 449 128 Q 437 136 431 151 L 431 158 L 435 167 Q 439 173 448 175 Q 457 176 462 173 Q 471 166 476 155 Q 492 138 519 133 L 535 133 L 543 135 L 549 135 L 571 139 L 592 145 Q 599 146 603 143 L 607 137 Q 608 127 605 122 L 602 119 L 590 115 L 554 107 L 541 106 L 540 105 L 513 105 Z M 1043 305 L 1018 310 L 995 320 L 854 406 L 851 408 L 863 383 L 868 367 L 871 350 L 871 342 L 867 332 L 860 326 L 849 323 L 839 323 L 830 325 L 796 341 L 756 368 L 699 412 L 695 415 L 712 382 L 738 348 Q 742 341 744 332 Q 745 324 742 321 Q 737 313 728 311 L 711 312 L 679 323 L 553 384 L 505 410 L 456 442 L 405 479 L 343 532 L 339 535 L 418 375 L 431 352 L 433 344 Q 434 335 432 331 L 424 324 L 408 324 L 393 328 L 373 336 L 308 372 Q 282 386 254 397 L 250 402 Q 248 411 252 416 L 258 420 Q 262 419 264 421 L 271 421 L 278 419 L 307 400 L 329 391 L 362 374 L 382 368 L 383 368 Q 364 420 341 470 L 282 593 Q 223 650 174 717 L 147 761 L 135 785 L 126 812 Q 124 828 129 837 Q 135 845 146 848 L 159 848 L 176 838 Q 187 828 196 815 L 228 762 L 250 720 L 297 619 Q 300 609 307 603 Q 356 550 413 505 Q 456 472 503 442 L 531 426 L 553 416 L 554 413 L 609 386 L 645 371 L 675 360 L 693 356 L 694 356 Q 683 384 668 409 L 646 441 L 631 456 L 625 468 Q 624 475 627 479 L 641 487 L 651 487 L 662 481 L 729 426 L 776 393 L 807 376 L 833 367 L 832 374 L 822 401 L 801 432 L 793 448 Q 791 458 795 463 Q 797 468 804 469 L 810 469 L 818 467 L 831 461 L 846 451 Q 863 434 885 420 L 954 376 L 979 364 L 1028 344 Q 1040 342 1045 348 L 1044 363 L 1036 379 L 1025 393 L 989 430 Q 980 441 975 457 Q 973 472 978 481 L 989 490 L 1007 496 L 1025 496 L 1034 494 L 1070 480 L 1126 456 L 1156 440 L 1181 429 L 1195 420 Q 1203 415 1207 406 L 1206 401 Q 1203 395 1196 394 L 1189 394 L 1179 397 Q 1164 403 1154 413 L 1142 419 L 1081 445 L 1052 455 L 1029 459 L 1017 458 L 1031 433 L 1071 374 Q 1077 363 1080 349 L 1080 333 L 1075 319 Q 1066 304 1043 305 Z M 1849 585 L 1842 593 L 1836 600 L 1840 600 L 1855 586 L 1849 585 Z M 1568 605 L 1559 607 L 1553 610 Q 1541 617 1538 633 L 1538 650 L 1544 664 L 1555 673 L 1569 677 L 1585 676 L 1596 671 L 1598 669 L 1598 644 L 1579 644 L 1580 648 L 1593 648 L 1593 668 L 1580 673 L 1567 673 L 1555 668 Q 1546 661 1543 649 L 1543 634 L 1548 621 Q 1554 612 1566 609 L 1580 609 L 1595 616 L 1596 614 Q 1592 608 1584 606 L 1568 605 Z M 441 606 L 441 660 L 439 666 L 430 673 Q 421 674 417 672 L 416 676 L 422 677 Q 433 678 439 673 Q 444 669 446 660 L 446 607 L 441 606 Z M 541 606 L 541 652 L 543 661 L 546 667 Q 551 675 564 677 L 577 676 L 583 673 L 591 664 L 594 654 L 594 607 L 589 606 L 589 655 L 585 665 Q 581 671 573 673 Q 560 675 555 669 L 549 663 L 546 653 L 546 607 L 541 606 Z M 706 606 Q 694 642 678 676 L 683 676 L 686 671 L 691 656 L 693 654 L 726 654 L 736 676 L 740 676 L 712 608 L 712 606 L 706 606 Z M 827 606 L 827 676 L 832 676 L 833 616 L 875 674 Q 876 677 881 676 L 881 607 L 876 606 L 876 666 L 834 610 Q 833 605 827 606 Z M 1080 606 L 1080 676 L 1085 676 L 1086 616 L 1113 663 Q 1112 665 1116 664 L 1121 657 L 1143 617 L 1144 617 L 1144 676 L 1149 676 L 1149 607 Q 1149 605 1145 606 L 1115 658 L 1086 608 Q 1085 605 1080 606 Z M 1244 606 L 1244 652 L 1246 661 L 1249 667 Q 1254 675 1267 677 L 1280 676 L 1286 673 L 1294 664 L 1297 654 L 1297 607 L 1292 606 L 1292 655 L 1288 665 Q 1284 671 1276 673 Q 1263 675 1258 669 L 1252 663 L 1249 653 L 1249 607 L 1244 606 Z M 1392 606 L 1392 676 L 1397 676 L 1398 616 L 1440 674 Q 1441 677 1446 676 L 1446 607 L 1441 606 L 1441 666 L 1399 610 Q 1398 605 1392 606 Z M 1689 606 L 1689 652 L 1691 661 L 1694 667 Q 1699 675 1712 677 L 1725 676 L 1731 673 L 1739 664 L 1742 654 L 1742 607 L 1737 606 L 1737 655 L 1733 665 Q 1729 671 1721 673 Q 1708 675 1703 669 L 1697 663 L 1694 653 L 1694 607 L 1689 606 Z M 1837 606 L 1837 676 L 1842 676 L 1842 607 L 1837 606 Z M 1957 606 Q 1945 642 1929 676 L 1934 676 L 1937 671 L 1942 656 L 1944 654 L 1977 654 L 1987 676 L 1991 676 L 1963 608 L 1963 606 L 1957 606 Z " />
	<path fill="rgb(0,0,0)" stroke="rgb(0,0,0)" stroke-width="4" opacity="0" d="M 709.5 612 L 724 650 L 694.5 650 L 694 648.5 L 709.5 612 Z " />
	<path fill="rgb(0,0,0)" stroke="rgb(0,0,0)" stroke-width="4" opacity="0" d="M 1960.5 612 L 1975 650 L 1945.5 650 L 1945 648.5 L 1960.5 612 Z " />
	<path fill="rgb(0,0,0)" stroke="rgb(0,0,0)" stroke-width="4" opacity="0.9686274509803922" d="M 512.5 105 L 539.5 105 L 540.5 106 L 553.5 107 L 589.5 115 L 601.5 119 L 605 121.5 Q 608.4 126.6 607 136.5 L 602.5 143 Q 599.2 146.2 591.5 145 L 570.5 139 L 548.5 135 L 542.5 135 L 534.5 133 L 518.5 133 Q 491.5 138 476 154.5 Q 470.8 165.8 461.5 173 Q 456.8 176.3 447.5 175 Q 439.1 172.9 435 166.5 L 431 157.5 L 431 150.5 Q 436.8 136.3 448.5 128 L 469.5 116 L 487.5 110 L 512.5 105 Z " />
	<path fill="rgb(0,0,0)" stroke="rgb(0,0,0)" stroke-width="4" opacity="0.9686274509803922" d="M 1042.5 305 Q 1066.3 304.3 1075 318.5 L 1080 332.5 L 1080 348.5 Q 1077.5 363 1071 373.5 L 1031 432.5 L 1017 458 L 1028.5 459 L 1051.5 455 L 1080.5 445 L 1141.5 419 L 1153.5 413 Q 1164.4 403.4 1178.5 397 L 1188.5 394 L 1195.5 394 Q 1202.9 395.1 1206 400.5 L 1207 405.5 Q 1203 415 1194.5 420 L 1180.5 429 L 1155.5 440 L 1125.5 456 L 1069.5 480 L 1033.5 494 L 1024.5 496 L 1006.5 496 L 988.5 490 L 978 480.5 Q 972.8 472.2 975 456.5 Q 979.5 440.5 989 429.5 L 1025 392.5 L 1036 378.5 L 1044 362.5 L 1045 347.5 Q 1040.3 341.7 1027.5 344 L 978.5 364 L 953.5 376 L 884.5 420 Q 863.3 433.8 845.5 451 L 830.5 461 L 817.5 467 L 809.5 469 L 803.5 469 Q 797.4 467.6 795 462.5 Q 791.2 457.8 793 447.5 L 801 431.5 L 822 400.5 L 832 373.5 L 833 367 L 806.5 376 L 775.5 393 L 728.5 426 L 661.5 481 L 650.5 487 L 640.5 487 L 627 478.5 Q 623.8 475.2 625 467.5 L 631 455.5 L 646 440.5 L 668 408.5 Q 683.3 384.3 693 356 L 674.5 360 L 644.5 371 L 608.5 386 L 554 413 L 552.5 416 L 530.5 426 L 502.5 442 Q 455.8 471.8 412.5 505 Q 355.8 549.8 307 602.5 Q 300.4 608.9 297 618.5 L 250 719.5 L 228 761.5 L 196 814.5 Q 187.2 827.7 175.5 838 L 158.5 848 L 145.5 848 Q 134.6 844.9 129 836.5 Q 123.7 827.8 126 811.5 L 135 784.5 L 147 760.5 L 174 716.5 Q 223 649.5 282 592.5 L 341 469.5 L 368 406.5 L 382 368 L 361.5 374 L 328.5 391 L 306.5 400 L 277.5 419 L 270.5 421 L 263.5 421 Q 262.2 418.7 257.5 420 L 252 415.5 Q 248.3 411.2 250 401.5 L 253.5 397 Q 282.2 386.2 307.5 372 L 372.5 336 L 392.5 328 L 407.5 324 L 423.5 324 L 432 330.5 Q 434.3 335.3 433 343.5 L 431 351.5 L 418 374.5 L 340 533.5 L 342.5 532 L 404.5 479 L 455.5 442 L 504.5 410 L 552.5 384 L 678.5 323 L 710.5 312 L 727.5 311 Q 737.5 313 742 320.5 Q 744.9 324.1 744 331.5 Q 742.5 341 738 347.5 L 712 381.5 L 695 414.5 L 698.5 412 L 755.5 368 L 795.5 341 L 829.5 325 L 838.5 323 L 848.5 323 L 859.5 326 L 867 331.5 L 871 341.5 L 871 349.5 L 868 366.5 L 863 382.5 L 851 407.5 L 853.5 406 L 994.5 320 L 1017.5 310 L 1042.5 305 Z " />
	<path fill="rgb(0,0,0)" stroke="rgb(0,0,0)" stroke-width="4" opacity="0.9333333333333333" d="M 1848.5 585 L 1855 585.5 L 1839.5 600 L 1835.5 600 L 1842 592.5 L 1848.5 585 Z " />
	<path fill="rgb(0,0,0)" stroke="rgb(0,0,0)" stroke-width="4" opacity="0.9333333333333333" d="M 1567.5 605 L 1583.5 606 Q 1591.7 607.8 1596 613.5 L 1594.5 616 L 1579.5 609 L 1565.5 609 Q 1553.9 611.9 1548 620.5 L 1543 633.5 L 1543 648.5 Q 1545.6 661.4 1554.5 668 L 1566.5 673 L 1579.5 673 L 1593 668 L 1593 648 L 1579.5 648 L 1579 644 L 1598 644 L 1598 668.5 L 1595.5 671 L 1584.5 676 L 1568.5 677 L 1554.5 673 L 1544 663.5 L 1538 649.5 L 1538 632.5 Q 1541.1 617.1 1552.5 610 L 1558.5 607 L 1567.5 605 Z " />
	<path fill="rgb(0,0,0)" stroke="rgb(0,0,0)" stroke-width="4" opacity="0.9333333333333333" d="M 441 606 L 446 606.5 L 446 659.5 Q 444.5 668.5 438.5 673 Q 433.2 678.2 421.5 677 L 416 676 L 417 672 Q 421.2 673.9 429.5 673 L 439 665.5 L 441 659.5 L 441 606 Z " />
	<path fill="rgb(0,0,0)" stroke="rgb(0,0,0)" stroke-width="4" opacity="0.9333333333333333" d="M 541 606 L 546 606.5 L 546 652.5 L 549 662.5 L 554.5 669 Q 559.8 674.7 572.5 673 Q 580.9 670.9 585 664.5 L 589 654.5 L 589 606 L 594 606.5 L 594 653.5 L 591 663.5 L 582.5 673 L 576.5 676 L 563.5 677 Q 551.5 675 546 666.5 L 543 660.5 L 541 651.5 L 541 606 Z " />
	<path fill="rgb(0,0,0)" stroke="rgb(0,0,0)" stroke-width="4" opacity="0.9333333333333333" d="M 706 606 L 711.5 606 L 712 607.5 L 740 675.5 L 735.5 676 L 725.5 654 L 692.5 654 L 691 655.5 L 686 670.5 L 682.5 676 L 678 675.5 Q 693.7 641.9 706 606 Z M 710 612 L 694 649 L 695 650 L 724 650 L 710 612 Z " />
	<path fill="rgb(0,0,0)" stroke="rgb(0,0,0)" stroke-width="4" opacity="0.9333333333333333" d="M 827 606 Q 832.6 605 834 609.5 L 875.5 666 L 876 606 L 881 606.5 L 881 676 Q 876.3 677 875 673.5 L 832.5 616 L 832 676 L 827 675.5 L 827 606 Z " />
	<path fill="rgb(0,0,0)" stroke="rgb(0,0,0)" stroke-width="4" opacity="0.9333333333333333" d="M 1080 606 Q 1084.6 604.8 1086 607.5 L 1114.5 658 L 1144.5 606 Q 1149 605.5 1149 606.5 L 1149 676 L 1144 675.5 L 1144 616.5 L 1143 616.5 L 1121 656.5 L 1115.5 664 Q 1112.2 665.1 1113 662.5 L 1085.5 616 L 1085 676 L 1080 675.5 L 1080 606 Z " />
	<path fill="rgb(0,0,0)" stroke="rgb(0,0,0)" stroke-width="4" opacity="0.9333333333333333" d="M 1244 606 L 1249 606.5 L 1249 652.5 L 1252 662.5 L 1257.5 669 Q 1262.8 674.7 1275.5 673 Q 1283.9 670.9 1288 664.5 L 1292 654.5 L 1292 606 L 1297 606.5 L 1297 653.5 L 1294 663.5 L 1285.5 673 L 1279.5 676 L 1266.5 677 Q 1254.5 675 1249 666.5 L 1246 660.5 L 1244 651.5 L 1244 606 Z " />
	<path fill="rgb(0,0,0)" stroke="rgb(0,0,0)" stroke-width="4" opacity="0.9333333333333333" d="M 1392 606 Q 1397.6 605 1399 609.5 L 1440.5 666 L 1441 606 L 1446 606.5 L 1446 676 Q 1441.3 677 1440 673.5 L 1397.5 616 L 1397 676 L 1392 675.5 L 1392 606 Z " />
	<path fill="rgb(0,0,0)" stroke="rgb(0,0,0)" stroke-width="4" opacity="0.9333333333333333" d="M 1689 606 L 1694 606.5 L 1694 652.5 L 1697 662.5 L 1702.5 669 Q 1707.8 674.7 1720.5 673 Q 1728.9 670.9 1733 664.5 L 1737 654.5 L 1737 606 L 1742 606.5 L 1742 653.5 L 1739 663.5 L 1730.5 673 L 1724.5 676 L 1711.5 677 Q 1699.5 675 1694 666.5 L 1691 660.5 L 1689 651.5 L 1689 606 Z " />
	<path fill="rgb(0,0,0)" stroke="rgb(0,0,0)" stroke-width="4" opacity="0.9333333333333333" d="M 1837 606 L 1842 606.5 L 1842 676 L 1837 675.5 L 1837 606 Z " />
	<path fill="rgb(0,0,0)" stroke="rgb(0,0,0)" stroke-width="4" opacity="0.9333333333333333" d="M 1957 606 L 1962.5 606 L 1963 607.5 L 1991 675.5 L 1986.5 676 L 1976.5 654 L 1943.5 654 L 1942 655.5 L 1937 670.5 L 1933.5 676 L 1929 675.5 Q 1944.7 641.9 1957 606 Z M 1961 612 L 1945 649 L 1946 650 L 1975 650 L 1961 612 Z " />
</svg>